<?xml version="1.0" standalone="no"?>
<!DOCTYPE svg PUBLIC "-//W3C//DTD SVG 20010904//EN"
 "http://www.w3.org/TR/2001/REC-SVG-20010904/DTD/svg10.dtd">
<svg version="1.0" xmlns="http://www.w3.org/2000/svg"
 width="300.000000pt" height="300.000000pt" viewBox="0 0 300.000000 300.000000"
 preserveAspectRatio="xMidYMid meet">
<metadata>
Created by potrace 1.14, written by Peter Selinger 2001-2017
</metadata>
<g transform="translate(0.000000,300.000000) scale(0.100000,-0.100000)"
fill="#000000" stroke="none">
<path d="M0 1943 c0 -1039 0 -1057 19 -1023 20 38 41 44 83 23 41 -20 67 -71
78 -159 6 -43 13 -89 16 -101 5 -28 35 -30 49 -5 40 74 75 156 75 175 1 47 43
101 105 132 82 41 96 52 149 118 43 52 51 57 86 57 87 0 140 -53 140 -140 0
-44 -4 -53 -39 -87 -21 -21 -52 -48 -70 -61 -17 -13 -31 -27 -31 -32 0 -12 83
1 101 16 8 8 22 14 29 14 8 0 -1 -11 -20 -25 -19 -14 -41 -25 -51 -25 -23 0
-86 -27 -128 -56 -20 -13 -46 -24 -59 -24 -12 0 -44 -11 -70 -23 -26 -13 -73
-32 -104 -41 -37 -11 -55 -22 -52 -30 5 -13 -42 -40 -55 -31 -4 2 -17 -4 -28
-14 -11 -11 -35 -27 -54 -36 -45 -23 -69 -45 -69 -63 0 -7 -9 -27 -21 -44 -12
-16 -34 -63 -50 -104 -27 -70 -29 -85 -29 -215 l0 -139 135 1 135 1 -12 21
c-19 38 -91 142 -100 145 -15 6 -9 34 6 29 8 -3 17 -1 19 6 5 15 43 -31 80
-97 l28 -51 -26 30 c-14 17 -33 45 -41 62 -9 18 -20 31 -24 28 -9 -5 45 -94
77 -129 10 -11 12 -16 5 -11 -10 5 -13 2 -10 -11 2 -14 14 -20 46 -22 29 -2
42 1 42 10 0 9 3 9 10 -2 15 -23 12 3 -4 36 -8 16 -19 61 -25 99 -11 75 -23
390 -13 365 12 -33 33 -38 60 -13 14 13 28 23 32 23 4 0 10 10 13 22 5 17 9
19 20 9 8 -6 21 -9 30 -5 8 3 18 1 21 -4 3 -5 -3 -12 -14 -15 -11 -3 -20 -12
-20 -20 0 -14 3 -14 26 -2 23 12 29 11 42 -1 13 -13 12 -18 -7 -38 -12 -12
-18 -26 -14 -29 3 -4 -3 -16 -15 -27 -20 -19 -24 -27 -21 -46 0 -4 -3 -10 -8
-13 -4 -3 -16 -31 -25 -61 -29 -94 -30 -100 -16 -100 25 0 55 29 61 59 6 27
51 131 110 250 23 45 44 62 56 43 8 -13 6 -50 -3 -72 -3 -8 -11 -53 -16 -100
-17 -150 -34 -235 -49 -255 -28 -36 -30 -108 -3 -91 6 3 13 2 16 -3 4 -5 -2
-12 -11 -14 -10 -3 3 -5 28 -6 36 -1 48 3 54 17 4 9 9 116 12 237 2 121 6 226
9 233 8 25 23 2 30 -46 11 -75 41 -122 59 -92 3 6 1 10 -6 10 -10 0 -10 3 -1
12 7 7 13 21 13 32 3 30 31 -212 30 -251 -1 -32 4 -29 27 16 15 28 18 41 9 44
-9 3 -9 9 0 26 7 11 13 31 14 43 0 13 3 17 6 11 11 -29 21 -10 12 22 -12 42
-6 55 26 55 13 0 27 5 30 10 4 6 11 7 17 4 6 -4 15 0 20 7 8 11 9 10 5 -3 -7
-21 18 -45 26 -26 4 8 8 9 14 3 16 -20 39 -13 41 13 2 19 -2 23 -16 20 -15 -4
-17 1 -14 44 2 26 8 48 14 48 6 0 7 -7 4 -16 -8 -20 11 -54 29 -54 9 0 15 -10
15 -22 1 -24 21 -58 36 -58 13 -1 46 -49 40 -59 -3 -5 2 -11 12 -14 9 -2 26
-8 37 -12 18 -7 18 -6 -3 14 -16 16 -21 28 -16 48 5 18 3 24 -4 19 -14 -8 -52
23 -52 43 0 11 4 10 15 -5 11 -15 17 -16 23 -6 7 10 16 4 36 -22 15 -20 24
-36 20 -36 -3 0 -1 -6 5 -13 6 -8 8 -16 6 -19 -3 -3 4 -8 15 -11 16 -4 20 -2
16 8 -3 9 0 12 10 8 8 -3 14 -13 12 -22 -1 -9 3 -26 10 -38 7 -13 10 -44 7
-81 -5 -57 -4 -62 25 -90 20 -20 26 -32 17 -35 -8 -4 -7 -6 3 -6 8 0 22 4 30
9 13 8 12 12 -8 25 -12 9 -20 21 -16 26 6 10 73 9 75 -1 7 -52 22 -80 35 -67
4 4 9 51 11 104 4 88 -1 138 -21 198 -4 11 1 7 10 -10 10 -18 19 -60 22 -101
4 -70 5 -72 36 -81 32 -9 50 -43 22 -43 -9 0 -16 -6 -16 -12 0 -7 -3 -23 -6
-36 -5 -18 -2 -22 15 -22 16 0 21 6 21 28 0 45 31 65 98 66 l57 1 3 -47 c2
-36 7 -48 19 -48 13 0 15 9 10 60 -4 32 -4 66 -1 75 13 32 21 12 23 -52 1 -37
6 -72 11 -77 16 -16 18 -3 10 50 -5 28 -6 71 -2 95 9 67 8 263 -2 369 -7 82
-6 101 8 128 9 18 23 35 31 38 8 3 17 14 20 25 4 12 16 19 32 19 24 0 23 -2
-18 -31 -24 -18 -45 -33 -47 -34 -2 -2 0 -14 4 -29 7 -29 41 -36 50 -11 6 15
34 21 34 7 0 -4 12 -13 28 -19 15 -7 36 -27 46 -43 10 -17 29 -36 42 -42 13
-6 24 -15 24 -20 0 -4 6 -8 13 -8 13 0 17 -86 4 -107 -4 -6 -2 -15 4 -19 12
-7 4 -84 -9 -94 -11 -8 -31 -70 -23 -70 4 0 12 5 18 11 8 8 10 0 7 -30 -2 -23
-10 -49 -18 -57 -9 -8 -13 -21 -9 -29 3 -9 1 -21 -5 -28 -5 -6 -12 -27 -14
-44 -4 -27 -1 -33 14 -33 10 0 19 7 19 15 1 8 2 19 3 25 0 5 10 15 20 23 12 9
17 21 14 34 -3 12 -2 27 3 34 7 11 9 9 9 -7 0 -11 6 -28 13 -38 11 -15 14 -8
25 56 7 40 15 125 17 188 5 116 19 185 36 175 10 -7 49 12 49 24 0 5 -25 28
-55 52 -31 24 -74 61 -98 83 -68 62 -115 88 -146 81 -26 -6 -26 -6 4 15 17 11
38 20 48 20 18 0 23 15 8 24 -5 3 -2 32 5 63 23 99 19 154 -20 258 -12 32 -15
35 -15 15 0 -14 6 -51 14 -83 18 -75 4 -134 -49 -206 -65 -89 -178 -163 -270
-178 -75 -12 -286 35 -308 69 -4 7 -8 23 -8 36 0 12 -4 22 -10 22 -13 0 0 32
19 47 9 7 24 13 34 13 9 0 17 4 17 9 0 6 24 8 54 7 65 -4 123 23 111 52 -20
46 -17 61 16 95 19 18 57 44 84 57 28 13 59 31 70 41 11 10 38 25 59 34 29 12
36 19 26 25 -11 7 -9 11 11 18 36 14 54 38 34 46 -8 3 -15 11 -15 18 0 10 2
10 9 0 13 -22 61 6 68 41 4 20 9 25 16 18 14 -14 57 25 57 52 0 18 -2 17 -19
-4 -11 -13 -25 -24 -33 -25 -29 -2 -58 -17 -58 -30 0 -7 -4 -15 -9 -19 -15 -8
-8 60 8 78 7 9 10 21 6 27 -3 5 6 21 22 35 17 15 21 23 11 19 -10 -3 -18 -10
-18 -15 0 -5 -10 -8 -22 -6 -18 2 -25 -7 -40 -46 -10 -27 -14 -46 -9 -43 10 6
25 -24 16 -32 -3 -3 -5 0 -5 6 0 7 -4 12 -10 12 -5 0 -10 -6 -10 -12 0 -7 -5
-20 -10 -28 -8 -13 -11 -13 -19 -1 -7 11 -10 9 -16 -8 -5 -17 -10 -19 -20 -11
-9 8 -14 7 -19 -5 -6 -18 -36 -20 -36 -3 0 7 -7 2 -16 -10 -8 -12 -20 -20 -25
-17 -5 4 -9 1 -9 -6 0 -7 -3 -9 -6 -6 -4 3 -15 2 -25 -4 -15 -8 -19 -6 -19 7
0 16 -2 16 -20 -1 -14 -13 -20 -14 -20 -5 0 7 -3 10 -7 7 -3 -4 -12 -2 -19 4
-9 7 -20 6 -38 -6 -24 -16 -26 -16 -26 -1 0 9 -6 16 -14 16 -7 0 -16 9 -19 20
-3 11 -12 20 -21 20 -9 0 -16 4 -16 9 0 8 -37 24 -52 22 -5 -1 -8 10 -8 23 0
21 -23 42 -42 38 -4 -1 -13 8 -19 21 -7 12 -15 24 -18 27 -3 3 -12 17 -19 31
-8 15 -26 39 -40 55 -15 16 -26 32 -25 36 4 12 -36 93 -44 90 -13 -5 -20 41
-10 65 6 14 28 28 61 39 60 20 47 31 -16 13 -56 -16 -60 -17 -80 -7 -21 10
-22 69 -1 108 9 17 9 26 2 29 -18 6 -30 -14 -36 -59 -8 -60 -23 -30 -23 48 0
61 16 85 27 42 6 -22 18 -26 28 -9 4 5 16 -8 27 -31 31 -62 55 -73 172 -80 99
-6 100 -6 56 -17 -35 -8 -39 -11 -17 -12 15 -1 44 6 64 14 20 8 38 13 40 11 3
-2 -5 -23 -17 -47 -16 -31 -21 -54 -17 -84 5 -46 -6 -75 -27 -75 -8 0 -19 -7
-26 -15 -7 -8 -20 -14 -29 -13 -17 3 -30 -41 -23 -80 4 -18 7 -20 18 -11 16
13 84 4 84 -11 0 -6 6 -10 14 -10 18 0 30 -30 16 -44 -5 -5 -10 -16 -10 -24 0
-12 3 -12 15 -2 8 7 13 16 10 20 -3 5 -1 11 5 15 6 4 10 -4 10 -19 0 -34 13
-39 35 -13 18 20 20 20 23 4 3 -13 9 -16 25 -11 32 9 40 20 33 42 -6 16 -19
22 -64 28 -31 3 -62 11 -69 16 -7 5 -18 6 -25 2 -7 -4 -4 2 6 14 18 21 28 22
159 22 135 0 141 -1 174 -26 31 -23 33 -24 33 -5 0 31 -24 47 -75 50 -58 3
-85 18 -92 54 -4 19 -9 24 -17 18 -16 -13 -37 12 -25 30 13 21 11 29 -8 29 -9
0 -13 3 -10 6 4 4 -8 14 -26 23 -31 15 -32 18 -29 71 1 30 2 91 2 134 -1 82 5
96 43 96 11 0 24 -14 33 -37 50 -122 67 -133 195 -133 116 0 153 15 179 72 11
24 20 53 20 66 0 12 9 31 21 43 38 38 22 53 -69 64 -53 7 -87 16 -92 26 -7 10
-32 14 -100 14 l-91 0 -35 -42 c-34 -41 -38 -43 -77 -37 -24 3 -51 15 -62 28
-37 40 -84 54 -160 50 -38 -3 -86 -9 -105 -14 -52 -14 -58 -13 -52 15 4 23 1
25 -30 25 -19 0 -37 3 -41 6 -8 8 14 54 26 54 9 0 8 14 -8 86 -5 22 -4 25 4
14 8 -12 17 -13 58 -2 26 7 55 19 63 27 18 16 191 102 240 120 36 13 125 55
171 80 22 13 37 12 115 -2 57 -11 100 -25 121 -40 17 -13 40 -23 50 -23 15 0
16 -2 3 -10 -12 -8 -12 -10 2 -15 9 -4 19 -18 22 -31 7 -25 66 -114 66 -99 0
5 5 4 12 -3 18 -18 26 -15 30 11 3 21 4 21 19 -7 25 -45 31 -16 14 70 -13 69
-34 110 -43 84 -6 -16 -22 -11 -22 6 0 8 -5 12 -10 9 -5 -3 -10 -1 -10 4 0 6
3 11 8 11 4 0 7 21 7 46 0 38 -5 50 -28 70 -16 13 -37 24 -47 24 -10 0 -21 4
-25 9 -3 6 -13 9 -23 9 -9 0 -53 16 -97 37 -55 27 -92 38 -119 37 -21 0 -61 8
-90 18 -28 11 -54 20 -58 20 -16 0 -7 -19 10 -23 13 -4 12 -5 -5 -6 -12 0 -23
5 -25 11 -4 10 -16 10 -59 -1 -30 -8 -86 -13 -126 -12 l-72 1 -58 -50 c-32
-28 -81 -71 -110 -95 -55 -49 -116 -153 -138 -237 -8 -29 -12 -103 -11 -192 2
-133 4 -148 24 -176 22 -29 22 -30 2 -30 -32 0 -39 -80 -14 -167 6 -23 6 -23
-42 -8 -72 21 -86 41 -85 113 1 88 -7 93 -137 90 -66 -2 -107 -7 -109 -14 -6
-17 62 -93 121 -135 49 -35 54 -42 65 -95 16 -84 14 -97 -16 -111 -35 -17 -48
-16 -63 2 -11 13 -16 13 -42 -1 -44 -23 -214 -17 -232 9 -7 9 -19 17 -26 17
-10 0 -11 12 -5 48 4 26 8 65 9 87 2 22 9 50 16 61 16 25 8 62 -20 94 -11 13
-20 33 -20 46 0 18 7 23 40 29 41 7 65 32 55 57 -6 15 23 50 68 83 15 11 27
25 27 31 0 5 20 25 45 44 25 19 45 40 45 47 0 23 -76 88 -132 114 -85 39 -88
43 -88 131 0 42 -5 90 -12 105 -20 48 -69 93 -100 93 -29 0 -68 -30 -68 -53 0
-7 -13 -31 -30 -53 -16 -21 -30 -42 -30 -45 0 -5 78 -130 97 -154 4 -6 14 -18
22 -28 8 -10 16 -48 18 -85 2 -36 8 -71 13 -76 6 -6 10 -32 10 -58 0 -102 -55
-165 -136 -155 -25 2 -54 13 -65 23 -11 9 -31 56 -45 103 -15 47 -40 122 -56
166 -29 75 -30 84 -19 136 13 63 13 163 2 229 -5 25 -9 38 -10 30 -1 -13 -2
-13 -11 0 -15 23 -12 66 5 80 10 9 15 9 15 1 0 -6 7 -11 15 -11 9 0 15 9 15
22 0 12 4 35 9 52 6 17 19 66 29 109 l20 77 -69 0 -69 0 0 -1057z m1659 741
c12 -12 -8 -10 -34 2 l-30 14 30 -6 c16 -3 32 -8 34 -10z m104 -25 c11 -7 30
-20 41 -30 11 -11 24 -19 30 -19 5 0 7 -3 4 -6 -8 -7 -45 12 -81 42 -31 26
-28 31 6 13z m32 -78 c32 -16 35 -20 17 -20 -12 -1 -30 3 -40 8 -9 5 -28 14
-42 19 l-25 11 25 0 c14 0 43 -8 65 -18z m85 -1 c8 -5 12 -11 9 -14 -3 -3 -14
1 -25 9 -21 16 -8 20 16 5z m86 -35 c1 -14 -2 -22 -7 -19 -11 6 -12 44 -1 44
4 0 8 -11 8 -25z m-35 -22 c13 -15 12 -15 -8 -4 -24 12 -29 21 -14 21 5 0 15
-7 22 -17z m99 -99 c0 -2 -7 -4 -15 -4 -8 0 -15 4 -15 10 0 5 7 7 15 4 8 -4
15 -8 15 -10z m-40 2 c0 -3 -4 -8 -10 -11 -5 -3 -10 -1 -10 4 0 6 5 11 10 11
6 0 10 -2 10 -4z m105 -26 c3 -5 -1 -10 -9 -10 -8 0 -18 5 -21 10 -3 6 1 10 9
10 8 0 18 -4 21 -10z m-64 -37 c-8 -15 -10 -15 -11 -2 0 17 10 32 18 25 2 -3
-1 -13 -7 -23z m59 -43 c0 -5 -5 -10 -11 -10 -5 0 -7 5 -4 10 3 6 8 10 11 10
2 0 4 -4 4 -10z m-140 -293 c21 -10 25 -21 28 -64 7 -118 -42 -157 -189 -151
-76 3 -91 6 -113 27 -32 30 -53 88 -37 104 8 8 11 6 11 -6 0 -10 8 -17 20 -17
11 0 20 -3 20 -7 0 -12 78 -14 85 -3 5 8 12 7 23 -2 9 -7 13 -8 9 -2 -4 8 13
11 54 10 85 -2 89 13 9 41 -19 7 -46 13 -59 13 -13 0 -21 3 -18 6 10 10 -39
44 -63 44 -11 0 -18 5 -15 10 9 15 205 12 235 -3z m-596 -6 c47 -2 21 -14 -47
-22 -39 -5 -66 -4 -74 3 -25 21 -12 29 40 24 28 -2 65 -5 81 -5z m-301 -18
c-18 -9 -33 -23 -33 -30 0 -7 -4 -13 -10 -13 -5 0 -10 5 -10 10 0 11 59 50 75
49 6 0 -5 -8 -22 -16z m600 -9 c-9 -15 -19 -21 -21 -15 -4 13 16 41 29 41 5 0
2 -12 -8 -26z m364 20 c-3 -3 -12 -4 -19 -1 -8 3 -5 6 6 6 11 1 17 -2 13 -5z
m-607 -35 c11 -7 4 -8 -25 -3 -50 8 -58 14 -19 14 16 0 36 -5 44 -11z m-15
-60 c-10 -15 -25 -10 -19 6 4 8 10 12 15 9 5 -3 7 -10 4 -15z m37 -18 c-10 -6
-10 -10 2 -21 9 -7 13 -16 10 -21 -3 -5 1 -9 8 -9 8 -1 3 -9 -10 -20 -30 -25
-136 -36 -202 -20 -39 9 -54 19 -65 41 -8 15 -15 30 -15 34 0 11 28 4 33 -9 3
-8 30 -16 67 -20 67 -8 87 -2 49 13 -24 9 -23 10 8 16 18 4 31 10 29 14 -2 3
19 7 47 8 30 1 46 -1 39 -6z m49 -184 c-8 -8 -14 -7 -23 2 -11 10 -9 15 7 27
18 13 20 13 23 -2 2 -9 -1 -21 -7 -27z m-1141 -44 c30 -26 30 -26 24 -112 -5
-76 -9 -89 -32 -109 -34 -32 -76 -23 -119 23 -38 40 -40 61 -15 150 25 89 76
107 142 48z m667 -43 c-5 -28 -12 -48 -14 -46 -8 8 8 106 17 101 4 -2 3 -27
-3 -55z m-67 -109 c75 -52 106 -83 102 -104 -2 -10 2 -25 10 -34 11 -15 11
-16 -5 -10 -13 5 -22 -1 -35 -23 -39 -70 -117 -41 -173 65 -39 75 -40 106 -6
130 31 22 44 19 107 -24z m627 12 c3 -7 -3 -9 -16 -6 -12 3 -21 10 -21 15 0
13 32 6 37 -9z m-375 -299 c5 -18 -1 -23 -36 -31 -22 -6 -48 -13 -56 -17 -12
-5 -15 3 -15 44 -1 48 0 50 27 50 15 0 28 5 28 10 0 17 47 -33 52 -56z m-14
-331 c22 -32 52 -69 66 -82 39 -37 31 -48 -9 -12 -20 17 -41 31 -48 31 -7 0
-22 23 -33 52 -10 29 -20 56 -22 60 -10 23 10 1 46 -49z m-356 -85 c-14 -14
-65 -18 -53 -4 5 6 21 12 36 13 18 0 24 -2 17 -9z m518 -85 c0 -55 -5 -54 -14
5 -4 26 -2 42 4 42 5 0 10 -21 10 -47z m-3 -135 c-3 -7 -5 -2 -5 12 0 14 2 19
5 13 2 -7 2 -19 0 -25z m-10 -40 c-3 -8 -6 -5 -6 6 -1 11 2 17 5 13 3 -3 4
-12 1 -19z m66 -128 c32 -36 63 -74 69 -85 5 -11 -3 -4 -18 15 -16 19 -50 57
-76 84 -26 27 -48 57 -47 65 0 14 1 14 6 1 4 -8 33 -44 66 -80z m-1142 -207
c54 -109 57 -118 24 -68 -41 63 -86 155 -76 155 5 0 29 -39 52 -87z m1182 45
c7 -20 -11 -58 -28 -58 -8 0 -18 0 -22 0 -5 0 -8 8 -8 18 0 12 7 16 24 14 19
-2 21 1 12 11 -6 8 -8 17 -4 20 10 11 20 8 26 -5z m40 -109 c5 -20 -16 -49
-36 -49 -9 0 -9 2 -1 8 6 4 15 17 19 30 5 19 3 25 -15 29 -16 4 -18 8 -9 14
16 10 35 -5 42 -32z"/>
<path d="M1842 2000 c15 -4 37 -15 50 -24 12 -9 29 -16 38 -16 8 0 -3 12 -25
25 -22 14 -51 25 -65 24 l-25 -1 27 -8z"/>
<path d="M2020 2241 c0 -6 11 -39 25 -72 13 -33 25 -79 27 -100 2 -43 6 -48
41 -54 21 -4 22 -1 22 51 -1 30 -5 58 -10 62 -6 4 -11 21 -11 37 -1 17 -2 37
-3 46 -1 9 -8 20 -17 23 -13 5 -15 1 -12 -19 7 -33 -8 -32 -16 1 -4 15 -10 24
-13 20 -3 -3 -12 -1 -20 5 -9 9 -13 8 -13 0z"/>
<path d="M2130 2150 c0 -11 5 -20 10 -20 6 0 10 9 10 20 0 11 -4 20 -10 20 -5
0 -10 -9 -10 -20z"/>
<path d="M2073 1945 c4 -26 7 -70 7 -96 0 -27 5 -49 10 -49 6 0 10 27 10 62 0
40 5 67 14 77 18 20 10 36 -23 46 -24 7 -24 6 -18 -40z"/>
<path d="M2155 1880 c-3 -5 -1 -10 4 -10 6 0 11 5 11 10 0 6 -2 10 -4 10 -3 0
-8 -4 -11 -10z"/>
<path d="M1645 1680 c-18 -8 -17 -9 8 -9 15 -1 27 4 27 9 0 12 -8 12 -35 0z"/>
<path d="M2065 1490 c-3 -5 -1 -10 4 -10 6 0 11 5 11 10 0 6 -2 10 -4 10 -3 0
-8 -4 -11 -10z"/>
<path d="M2056 1461 c-4 -7 -5 -15 -2 -18 9 -9 19 4 14 18 -4 11 -6 11 -12 0z"/>
<path d="M1600 1421 c0 -10 19 -25 25 -20 1 2 -3 10 -11 17 -8 7 -14 8 -14 3z"/>
<path d="M2036 1414 c-4 -9 -4 -19 -1 -22 2 -3 7 3 11 12 4 9 4 19 1 22 -2 3
-7 -3 -11 -12z"/>
<path d="M2230 912 c0 -10 50 -35 57 -28 3 2 -9 12 -26 21 -17 8 -31 12 -31 7z"/>
<path d="M2310 843 c-42 -8 -43 -19 -6 -41 24 -14 36 -29 37 -44 0 -13 2 -32
5 -43 2 -11 10 -56 18 -100 38 -205 63 -285 90 -285 14 0 17 5 13 23 -3 12
-11 60 -17 107 -6 47 -15 112 -20 145 -5 33 -12 83 -16 110 -8 63 -42 135 -63
134 -9 -1 -27 -4 -41 -6z"/>
<path d="M2506 664 c6 -81 8 -84 116 -279 58 -104 89 -230 81 -322 l-6 -63 47
0 47 0 -6 48 c-20 188 -31 247 -57 322 -36 103 -85 191 -134 245 -20 21 -43
53 -50 70 -7 18 -20 38 -29 45 -15 12 -16 6 -9 -66z"/>
<path d="M1884 575 c26 -19 42 -19 26 0 -7 8 -20 15 -29 15 -13 -1 -13 -3 3
-15z"/>
<path d="M2927 524 c-4 -4 -7 -15 -7 -24 0 -10 -7 -23 -15 -30 -8 -7 -15 -28
-15 -47 0 -19 -4 -32 -9 -29 -5 3 -11 0 -14 -7 -6 -17 4 -157 12 -157 8 0 31
97 31 130 0 13 7 52 16 87 15 62 16 92 1 77z"/>
<path d="M890 352 c0 -5 7 -13 16 -16 10 -4 14 -1 12 6 -5 15 -28 23 -28 10z"/>
<path d="M2985 319 c-4 -6 -5 -12 -2 -15 2 -3 7 2 10 11 7 17 1 20 -8 4z"/>
<path d="M2446 295 c4 -8 8 -15 10 -15 2 0 4 7 4 15 0 8 -4 15 -10 15 -5 0 -7
-7 -4 -15z"/>
<path d="M2481 284 c0 -11 3 -14 6 -6 3 7 2 16 -1 19 -3 4 -6 -2 -5 -13z"/>
<path d="M2976 197 c-11 -26 -27 -54 -36 -60 -17 -12 -44 -86 -36 -95 3 -2 11
7 19 20 7 12 28 46 46 75 21 34 31 62 29 80 -3 26 -5 24 -22 -20z"/>
<path d="M1820 191 c0 -14 28 -21 34 -8 3 9 5 9 5 0 1 -7 12 -13 26 -13 28 0
34 15 9 24 -24 9 -74 7 -74 -3z"/>
<path d="M2041 184 c0 -11 3 -14 6 -6 3 7 2 16 -1 19 -3 4 -6 -2 -5 -13z"/>
<path d="M2930 169 c0 -5 5 -7 10 -4 6 3 10 8 10 11 0 2 -4 4 -10 4 -5 0 -10
-5 -10 -11z"/>
<path d="M1843 104 c-9 -24 10 -49 41 -52 34 -4 45 22 21 48 -22 24 -53 26
-62 4z"/>
<path d="M1508 40 c-2 -22 0 -40 4 -40 5 0 8 18 8 40 0 22 -2 40 -4 40 -2 0
-6 -18 -8 -40z"/>
<path d="M1627 52 c-10 -10 -17 -26 -17 -36 0 -14 8 -17 48 -14 43 3 47 5 44
28 -4 42 -46 54 -75 22z"/>
</g>
</svg>
